<svg width="120" height="120" viewBox="0 0 120 120" fill="none" xmlns="http://www.w3.org/2000/svg">
<rect width="120" height="120" rx="14.1785" fill="#24282F"/>
<path d="M59.9998 24C46.0678 24 34.7998 35.268 34.7998 49.2C34.7998 68.1 59.9998 96 59.9998 96C59.9998 96 85.1998 68.1 85.1998 49.2C85.1998 35.268 73.9318 24 59.9998 24ZM59.9998 58.2C57.6129 58.2 55.3237 57.2518 53.6358 55.564C51.948 53.8761 50.9998 51.5869 50.9998 49.2C50.9998 46.8131 51.948 44.5239 53.6358 42.836C55.3237 41.1482 57.6129 40.2 59.9998 40.2C62.3868 40.2 64.6759 41.1482 66.3638 42.836C68.0516 44.5239 68.9998 46.8131 68.9998 49.2C68.9998 51.5869 68.0516 53.8761 66.3638 55.564C64.6759 57.2518 62.3868 58.2 59.9998 58.2Z" fill="#F3AF56"/>
</svg>
