<svg width="120" height="120" viewBox="0 0 120 120" fill="none" xmlns="http://www.w3.org/2000/svg">
<rect width="120" height="120" rx="14.1785" fill="#24282F"/>
<path d="M38.48 55.16C44.24 66.48 53.52 75.72 64.84 81.52L73.64 72.72C74.72 71.64 76.32 71.28 77.72 71.76C82.2 73.24 87.04 74.04 92 74.04C94.2 74.04 96 75.84 96 78.04V92C96 94.2 94.2 96 92 96C54.44 96 24 65.56 24 28C24 25.8 25.8 24 28 24H42C44.2 24 46 25.8 46 28C46 33 46.8 37.8 48.28 42.28C48.72 43.68 48.4 45.24 47.28 46.36L38.48 55.16Z" fill="#F3AF56"/>
</svg>
